<svg id="520f8453-f937-49cb-9b38-46ff65d83c6c" data-name="Layer 1" xmlns="http://www.w3.org/2000/svg" viewBox="0 0 42.17 56.99"><defs><style>.fb642d17-1ce3-436e-83f9-4de94e69e19b{fill:#fff;}</style></defs><title>Untitled-2</title><path class="fb642d17-1ce3-436e-83f9-4de94e69e19b" d="M28.37,12.15a1.22,1.22,0,0,1-1.21,1.21H17.28a1.22,1.22,0,0,1-1.21-1.21V2.26a1.22,1.22,0,0,1,1.21-1.21h9.88a1.22,1.22,0,0,1,1.21,1.21v9.88Z" transform="translate(-0.92 -0.51)"/><path class="fb642d17-1ce3-436e-83f9-4de94e69e19b" d="M43.08,12.15a1.22,1.22,0,0,1-1.21,1.21H32a1.22,1.22,0,0,1-1.21-1.21V2.26A1.22,1.22,0,0,1,32,1.06h9.88a1.22,1.22,0,0,1,1.21,1.21v9.88Z" transform="translate(-0.92 -0.51)"/><path class="fb642d17-1ce3-436e-83f9-4de94e69e19b" d="M43.08,41.58a1.22,1.22,0,0,1-1.21,1.21H32a1.22,1.22,0,0,1-1.21-1.21V31.69A1.22,1.22,0,0,1,32,30.49h9.88a1.22,1.22,0,0,1,1.21,1.21v9.88Z" transform="translate(-0.92 -0.51)"/><path class="fb642d17-1ce3-436e-83f9-4de94e69e19b" d="M13.65,26.86a1.22,1.22,0,0,1-1.21,1.21H2.56a1.22,1.22,0,0,1-1.21-1.21V17a1.22,1.22,0,0,1,1.21-1.21h9.88A1.22,1.22,0,0,1,13.65,17v9.88Z" transform="translate(-0.92 -0.51)"/><path class="fb642d17-1ce3-436e-83f9-4de94e69e19b" d="M28.37,26.86a1.22,1.22,0,0,1-1.21,1.21H17.28a1.22,1.22,0,0,1-1.21-1.21V17a1.22,1.22,0,0,1,1.21-1.21h9.88A1.22,1.22,0,0,1,28.37,17v9.88Z" transform="translate(-0.92 -0.51)"/><path class="fb642d17-1ce3-436e-83f9-4de94e69e19b" d="M13.65,41.58a1.22,1.22,0,0,1-1.21,1.21H2.56a1.22,1.22,0,0,1-1.21-1.21V31.69a1.22,1.22,0,0,1,1.21-1.21h9.88a1.22,1.22,0,0,1,1.21,1.21v9.88Z" transform="translate(-0.92 -0.51)"/><path class="fb642d17-1ce3-436e-83f9-4de94e69e19b" d="M28.37,41.58a1.22,1.22,0,0,1-1.21,1.21H17.28a1.22,1.22,0,0,1-1.21-1.21V31.69a1.22,1.22,0,0,1,1.21-1.21h9.88a1.22,1.22,0,0,1,1.21,1.21v9.88Z" transform="translate(-0.92 -0.51)"/><path class="fb642d17-1ce3-436e-83f9-4de94e69e19b" d="M13.65,56.29a1.22,1.22,0,0,1-1.21,1.21H2.56a1.22,1.22,0,0,1-1.21-1.21V46.41A1.22,1.22,0,0,1,2.56,45.2h9.88a1.22,1.22,0,0,1,1.21,1.21v9.88Z" transform="translate(-0.92 -0.51)"/><path class="fb642d17-1ce3-436e-83f9-4de94e69e19b" d="M28.37,56.29a1.22,1.22,0,0,1-1.21,1.21H17.28a1.22,1.22,0,0,1-1.21-1.21V46.41a1.22,1.22,0,0,1,1.21-1.21h9.88a1.22,1.22,0,0,1,1.21,1.21v9.88Z" transform="translate(-0.92 -0.51)"/><path class="fb642d17-1ce3-436e-83f9-4de94e69e19b" d="M14.31,7.2a6.66,6.66,0,0,1-6.7,6.7A6.66,6.66,0,0,1,.92,7.2,6.66,6.66,0,0,1,7.61.51a6.73,6.73,0,0,1,6.7,6.7" transform="translate(-0.92 -0.51)"/></svg>